<svg width="212" height="39" viewBox="0 0 212 39" fill="none" xmlns="http://www.w3.org/2000/svg">
<path d="M16.8351 8.40266C16.7033 7.16168 16.1481 6.19291 15.1696 5.50436C14.191 4.81582 12.9209 4.46754 11.3632 4.46754C10.2648 4.46754 9.32621 4.63167 8.53938 4.96393C7.75254 5.2962 7.15343 5.74455 6.73804 6.313C6.32265 6.88146 6.11097 7.52997 6.09899 8.26255C6.09899 8.87103 6.23878 9.39545 6.51836 9.8398C6.79795 10.2842 7.17739 10.6605 7.66068 10.9687C8.14396 11.2769 8.67518 11.5371 9.26231 11.7453C9.84944 11.9535 10.4406 12.1296 11.0357 12.2697L13.7597 12.9503C14.858 13.2065 15.9125 13.5507 16.931 13.9871C17.9455 14.4234 18.8601 14.9719 19.6669 15.6364C20.4737 16.3009 21.1168 17.1016 21.5881 18.0383C22.0594 18.975 22.299 20.0759 22.299 21.3369C22.299 23.0423 21.8637 24.5435 20.993 25.8365C20.1223 27.1295 18.8681 28.1383 17.2265 28.8629C15.585 29.5875 13.6039 29.9517 11.2753 29.9517C8.94678 29.9517 7.05757 29.5995 5.39602 28.8989C3.73448 28.1984 2.44039 27.1735 1.50977 25.8285C0.579144 24.4834 0.0758878 22.8421 0 20.9086H5.17635C5.25224 21.9214 5.56378 22.766 6.11097 23.4386C6.65816 24.1111 7.3771 24.6155 8.25979 24.9478C9.14249 25.28 10.133 25.4442 11.2314 25.4442C12.3298 25.4442 13.3802 25.272 14.2469 24.9238C15.1137 24.5795 15.7887 24.0951 16.2839 23.4746C16.7752 22.8541 17.0268 22.1255 17.0348 21.2929C17.0268 20.5363 16.8032 19.9078 16.3678 19.4074C15.9324 18.911 15.3253 18.4907 14.5465 18.1584C13.7676 17.8261 12.857 17.5219 11.8145 17.2537L8.51142 16.401C6.11896 15.7845 4.22975 14.8478 2.8438 13.5948C1.45785 12.3378 0.766866 10.6685 0.766866 8.5828C0.766866 6.86945 1.23418 5.36425 2.1648 4.07523C3.09542 2.78621 4.36555 1.78542 5.97117 1.06885C7.5768 0.356282 9.39811 0 11.4311 0C13.4641 0 15.3014 0.356282 16.8551 1.07285C18.4088 1.78942 19.631 2.7782 20.5217 4.04321C21.4124 5.30821 21.8677 6.76136 21.8956 8.39866H16.8311L16.8351 8.40266Z" fill="#C82236"/>
<path d="M38.2276 7.67844V11.6576H25.7021V7.67844H38.2276ZM28.7936 2.44629H33.93V22.9465C33.93 23.6391 34.0378 24.1675 34.2495 24.5318C34.4612 24.8961 34.7448 25.1443 35.0923 25.2804C35.4398 25.4165 35.8312 25.4805 36.2546 25.4805C36.5741 25.4805 36.8696 25.4565 37.1412 25.4085C37.4088 25.3605 37.6165 25.3204 37.7563 25.2804L38.6231 29.3036C38.3475 29.3997 37.96 29.5037 37.4528 29.6158C36.9455 29.7319 36.3304 29.796 35.6035 29.816C34.3174 29.852 33.1591 29.6559 32.1287 29.2275C31.0982 28.7952 30.2834 28.1266 29.6803 27.2179C29.0812 26.3092 28.7856 25.1723 28.7936 23.8072V2.44629V2.44629Z" fill="#C82236"/>
<path d="M43.124 29.5113V7.67797H48.1007V11.3169H48.3283C48.7237 10.0559 49.4107 9.08308 50.3773 8.39454C51.3479 7.70599 52.4542 7.36572 53.7044 7.36572C53.988 7.36572 54.3075 7.37773 54.663 7.40175C55.0184 7.42577 55.314 7.4618 55.5497 7.50984V12.2456C55.334 12.1695 54.9905 12.1015 54.5232 12.0414C54.0559 11.9814 53.6045 11.9494 53.1692 11.9494C52.2346 11.9494 51.3918 12.1495 50.6529 12.5538C49.91 12.9582 49.3269 13.5146 48.9035 14.2232C48.4761 14.9357 48.2644 15.7524 48.2644 16.6811V29.5193H43.132L43.124 29.5113Z" fill="#C82236"/>
<path d="M68.3031 29.9399C66.1183 29.9399 64.2331 29.4836 62.6514 28.5668C61.0658 27.6501 59.8516 26.3531 59.0008 24.6717C58.1501 22.9904 57.7227 21.0048 57.7227 18.723C57.7227 16.4412 58.1501 14.5037 59.0048 12.8023C59.8596 11.101 61.0578 9.77593 62.5995 8.82318C64.1412 7.87042 65.9506 7.39404 68.0315 7.39404C69.3735 7.39404 70.6436 7.61021 71.8418 8.04256C73.0361 8.4749 74.0985 9.13943 75.0172 10.0401C75.9358 10.9409 76.6627 12.0858 77.1939 13.4749C77.7251 14.864 77.9888 16.5133 77.9888 18.4308V20.008H60.1312V16.5413H73.068C73.06 15.5565 72.8444 14.6758 72.429 13.9032C72.0136 13.1306 71.4344 12.5221 70.6915 12.0778C69.9486 11.6334 69.0859 11.4092 68.1034 11.4092C67.0529 11.4092 66.1303 11.6614 65.3395 12.1698C64.5446 12.6782 63.9295 13.3388 63.4902 14.1594C63.0508 14.9801 62.8272 15.8768 62.8152 16.8535V19.8799C62.8152 21.1489 63.0468 22.2378 63.5102 23.1425C63.9735 24.0472 64.6205 24.7398 65.4553 25.2162C66.2861 25.6966 67.2606 25.9327 68.379 25.9327C69.1259 25.9327 69.8009 25.8247 70.408 25.6125C71.0111 25.4003 71.5383 25.0841 71.9816 24.6677C72.425 24.2514 72.7605 23.735 72.9882 23.1185L77.7811 23.6589C77.4775 24.9279 76.9024 26.0368 76.0596 26.9776C75.2129 27.9223 74.1345 28.6509 72.8204 29.1673C71.5063 29.6837 70.0006 29.9439 68.3111 29.9439L68.3031 29.9399Z" fill="#C82236"/>
<path d="M89.2004 29.9521C87.8184 29.9521 86.5802 29.7039 85.4779 29.2035C84.3755 28.7071 83.5048 27.9705 82.8697 26.9938C82.2347 26.017 81.9111 24.812 81.9111 23.3829C81.9111 22.1499 82.1388 21.1331 82.5941 20.3245C83.0494 19.5198 83.6685 18.8753 84.4514 18.391C85.2342 17.9066 86.1209 17.5423 87.1114 17.2901C88.098 17.0379 89.1245 16.8577 90.1829 16.7416C91.461 16.6095 92.4955 16.4894 93.2903 16.3774C94.0851 16.2693 94.6643 16.0971 95.0277 15.865C95.3912 15.6328 95.5749 15.2685 95.5749 14.7761V14.692C95.5749 13.6232 95.2594 12.7905 94.6243 12.2061C93.9893 11.6176 93.0786 11.3254 91.8884 11.3254C90.6302 11.3254 89.6357 11.6016 88.9048 12.15C88.1739 12.6984 87.6786 13.351 87.423 14.0996L82.6301 13.415C83.0095 12.09 83.6326 10.9771 84.5033 10.0804C85.374 9.18366 86.4364 8.51112 87.6946 8.06277C88.9527 7.61441 90.3427 7.38623 91.8644 7.38623C92.9149 7.38623 93.9573 7.51033 94.9998 7.75452C96.0383 8.00272 96.9888 8.40704 97.8516 8.97149C98.7103 9.53593 99.4053 10.3005 99.9285 11.2693C100.452 12.2341 100.715 13.443 100.715 14.8962V29.5118H95.7786V26.5134H95.6069C95.2953 27.1179 94.856 27.6863 94.2968 28.2107C93.7337 28.7352 93.0307 29.1595 92.184 29.4757C91.3372 29.792 90.3467 29.9521 89.2123 29.9521H89.2004ZM90.5344 26.1691C91.5649 26.1691 92.4595 25.965 93.2144 25.5526C93.9693 25.1403 94.5564 24.5919 94.9678 23.9113C95.3792 23.2308 95.5829 22.4862 95.5829 21.6816V19.1075C95.4232 19.2396 95.1516 19.3637 94.7681 19.4758C94.3847 19.5879 93.9573 19.688 93.486 19.7761C93.0147 19.8601 92.5434 19.9362 92.0801 20.0042C91.6168 20.0723 91.2134 20.1283 90.8739 20.1764C90.107 20.2805 89.424 20.4526 88.8169 20.6888C88.2098 20.925 87.7345 21.2572 87.383 21.6776C87.0316 22.0979 86.8598 22.6423 86.8598 23.3069C86.8598 24.2556 87.2033 24.9722 87.8943 25.4526C88.5853 25.9369 89.464 26.1771 90.5344 26.1771V26.1691Z" fill="#C82236"/>
<path d="M106.479 29.5116V7.67827H111.387V11.3892H111.643C112.098 10.1402 112.849 9.15944 113.9 8.45488C114.95 7.75033 116.2 7.39404 117.658 7.39404C119.116 7.39404 120.378 7.75033 121.396 8.46689C122.411 9.18346 123.13 10.1562 123.545 11.3892H123.773C124.256 10.1762 125.071 9.20748 126.221 8.48291C127.372 7.75833 128.734 7.39404 130.315 7.39404C132.32 7.39404 133.954 8.03055 135.224 9.29955C136.49 10.5686 137.125 12.422 137.125 14.856V29.5116H131.977V15.6526C131.977 14.2955 131.617 13.3027 130.898 12.6742C130.179 12.0457 129.301 11.7295 128.262 11.7295C127.024 11.7295 126.058 12.1138 125.363 12.8864C124.668 13.659 124.32 14.6598 124.32 15.8928V29.5116H119.284V15.4404C119.284 14.3115 118.944 13.4108 118.269 12.7383C117.594 12.0657 116.711 11.7295 115.625 11.7295C114.886 11.7295 114.215 11.9176 113.612 12.2899C113.005 12.6662 112.526 13.1906 112.166 13.8672C111.807 14.5437 111.627 15.3323 111.627 16.233V29.5116H106.494H106.479Z" fill="#C82236"/>
<path d="M149.203 29.9521C147.821 29.9521 146.583 29.7039 145.481 29.2035C144.378 28.7071 143.508 27.9705 142.873 26.9938C142.238 26.017 141.914 24.812 141.914 23.3829C141.914 22.1499 142.142 21.1331 142.597 20.3245C143.052 19.5198 143.671 18.8753 144.454 18.391C145.237 17.9066 146.124 17.5423 147.114 17.2901C148.101 17.0379 149.127 16.8577 150.186 16.7416C151.464 16.6095 152.498 16.4894 153.293 16.3774C154.088 16.2693 154.667 16.0971 155.031 15.865C155.394 15.6328 155.578 15.2685 155.578 14.7761V14.692C155.578 13.6232 155.262 12.7905 154.627 12.2061C153.992 11.6176 153.082 11.3254 151.891 11.3254C150.633 11.3254 149.639 11.6016 148.908 12.15C148.177 12.6984 147.682 13.351 147.426 14.0996L142.633 13.415C143.012 12.09 143.636 10.9771 144.506 10.0804C145.377 9.18366 146.439 8.51112 147.698 8.06277C148.956 7.61441 150.346 7.38623 151.867 7.38623C152.918 7.38623 153.96 7.51033 155.003 7.75452C156.041 8.00272 156.992 8.40704 157.854 8.97149C158.713 9.53593 159.408 10.3005 159.931 11.2693C160.455 12.2341 160.718 13.443 160.718 14.8962V29.5118H155.782V26.5134H155.61C155.298 27.1179 154.859 27.6863 154.3 28.2107C153.737 28.7352 153.034 29.1595 152.187 29.4757C151.34 29.792 150.35 29.9521 149.215 29.9521H149.203ZM150.537 26.1691C151.568 26.1691 152.462 25.965 153.217 25.5526C153.972 25.1403 154.559 24.5919 154.971 23.9113C155.382 23.2308 155.586 22.4862 155.586 21.6816V19.1075C155.426 19.2396 155.154 19.3637 154.771 19.4758C154.388 19.5879 153.96 19.688 153.489 19.7761C153.018 19.8601 152.546 19.9362 152.083 20.0042C151.62 20.0723 151.216 20.1283 150.877 20.1764C150.11 20.2805 149.427 20.4526 148.82 20.6888C148.213 20.925 147.737 21.2572 147.386 21.6776C147.034 22.0979 146.863 22.6423 146.863 23.3069C146.863 24.2556 147.206 24.9722 147.897 25.4526C148.588 25.9369 149.467 26.1771 150.537 26.1771V26.1691Z" fill="#C82236"/>
<path d="M175.957 38.0704C174.111 38.0704 172.53 37.8222 171.204 37.3298C169.878 36.8374 168.815 36.1769 168.012 35.3522C167.209 34.5276 166.65 33.6228 166.339 32.6381L170.964 31.5172C171.172 31.9055 171.475 32.3058 171.871 32.7181C172.266 33.1304 172.805 33.4747 173.48 33.7549C174.155 34.0352 175.01 34.1753 176.04 34.1753C177.498 34.1753 178.701 33.823 179.655 33.1224C180.61 32.4219 181.089 31.289 181.089 29.7237V25.5885H180.833C180.57 26.1209 180.182 26.6653 179.679 27.2218C179.176 27.7782 178.505 28.2506 177.678 28.6309C176.851 29.0112 175.813 29.1993 174.567 29.1993C172.893 29.1993 171.379 28.803 170.021 28.0144C168.663 27.2258 167.585 26.0368 166.786 24.4596C165.987 22.8823 165.588 20.9048 165.588 18.5229C165.588 16.141 165.987 14.0994 166.786 12.446C167.585 10.7927 168.667 9.53574 170.029 8.67906C171.391 7.82238 172.909 7.39404 174.583 7.39404C175.861 7.39404 176.911 7.61021 177.738 8.04256C178.565 8.4749 179.224 8.99131 179.715 9.59179C180.206 10.1923 180.582 10.7607 180.837 11.2891H181.121V7.67827H186.185V29.8679C186.185 31.6973 185.742 33.2185 184.851 34.4395C183.961 35.6564 182.747 36.5652 181.205 37.1696C179.663 37.7701 177.914 38.0704 175.957 38.0704V38.0704ZM176.001 25.1601C177.087 25.1601 178.014 24.8959 178.78 24.3635C179.547 23.8311 180.126 23.0705 180.526 22.0737C180.921 21.0769 181.121 19.8839 181.121 18.4908C181.121 17.0977 180.925 15.9128 180.534 14.88C180.142 13.8472 179.563 13.0425 178.804 12.4701C178.041 11.8976 177.111 11.6094 176.005 11.6094C174.898 11.6094 173.904 11.9096 173.141 12.5061C172.374 13.1026 171.799 13.9192 171.411 14.96C171.024 16.0009 170.828 17.1738 170.828 18.4908C170.828 19.8079 171.024 20.9968 171.415 21.9936C171.807 22.9904 172.39 23.771 173.161 24.3235C173.932 24.8759 174.878 25.1561 176.005 25.1561L176.001 25.1601Z" fill="#C82236"/>
<path d="M201.558 29.94C199.429 29.94 197.588 29.4716 196.026 28.5309C194.464 27.5901 193.258 26.2811 192.403 24.5918C191.548 22.9064 191.121 20.9329 191.121 18.6791C191.121 16.4253 191.548 14.4477 192.403 12.7504C193.258 11.053 194.468 9.736 196.026 8.79925C197.584 7.86251 199.429 7.39014 201.558 7.39014C203.687 7.39014 205.528 7.85851 207.089 8.79925C208.651 9.74 209.857 11.053 210.712 12.7504C211.567 14.4477 211.994 16.4213 211.994 18.6791C211.994 20.9369 211.567 22.9064 210.712 24.5918C209.857 26.2771 208.647 27.5901 207.089 28.5309C205.532 29.4716 203.687 29.94 201.558 29.94ZM201.586 25.8167C202.74 25.8167 203.703 25.4965 204.477 24.856C205.252 24.2155 205.831 23.3548 206.215 22.2739C206.598 21.1931 206.79 19.9881 206.79 18.6631C206.79 17.338 206.598 16.1171 206.215 15.0322C205.831 13.9473 205.252 13.0826 204.477 12.4381C203.703 11.7936 202.736 11.4694 201.586 11.4694C200.435 11.4694 199.421 11.7936 198.642 12.4381C197.863 13.0826 197.28 13.9473 196.897 15.0322C196.513 16.1171 196.321 17.326 196.321 18.6631C196.321 20.0001 196.513 21.1931 196.897 22.2739C197.28 23.3548 197.863 24.2155 198.642 24.856C199.421 25.4965 200.403 25.8167 201.586 25.8167V25.8167Z" fill="#C82236"/>
<path d="M205.061 18.8948L202.473 20.392L199.885 21.8891V18.8948V15.9004L202.473 17.3976L205.061 18.8948Z" fill="#C82236"/>
</svg>
